<?xml version="1.0" encoding="utf-8"?>
<!-- Generator: Adobe Illustrator 27.2.0, SVG Export Plug-In . SVG Version: 6.00 Build 0)  -->
<svg version="1.1" xmlns="http://www.w3.org/2000/svg" xmlns:xlink="http://www.w3.org/1999/xlink" x="0px" y="0px"
	 viewBox="0 0 768.92 615.19" style="enable-background:new 0 0 768.92 615.19;" xml:space="preserve">
<style type="text/css">
	.st0{stroke:#000000;stroke-width:4;stroke-miterlimit:10;}
	.st1{fill:#1FC0FF;}
</style>
<g id="Слой_6">
</g>
<g id="Слой_5">
	<path class="st0" d="M101.96,114.19l70-32l0.3-0.39l-36-72.75c-3.78-7.64-15.12-5.98-16.55,2.42l-17.45,102.32"/>
	<path class="st0" d="M596.19,71.58l70.22,31.52l0.38-0.4l-16.01-90.16c-2.16-12.18-18.64-14.47-24.05-3.35l-30.15,61.99"/>
</g>
<g id="Слой_2">
	<g>
		<path class="st1" d="M253.73,613.19c-67.24,0-130.45-26.18-178-73.73C28.18,491.91,2,428.7,2,361.46v-57.85
			c0-67.24,26.18-130.45,73.73-178c47.54-47.55,110.76-73.73,178-73.73h261.47c67.24,0,130.45,26.18,178,73.73
			s73.73,110.76,73.73,178v57.85c0,67.24-26.18,130.45-73.73,178s-110.76,73.73-178,73.73H253.73z"/>
		<g>
			<path d="M515.19,53.88c33.71,0,66.42,6.6,97.2,19.62c29.74,12.58,56.44,30.58,79.38,53.52c22.94,22.94,40.94,49.64,53.52,79.38
				c13.02,30.79,19.62,63.49,19.62,97.2v57.85c0,33.71-6.6,66.42-19.62,97.2c-12.58,29.74-30.58,56.44-53.52,79.38
				c-22.94,22.94-49.64,40.94-79.38,53.52c-30.79,13.02-63.49,19.62-97.2,19.62H253.73c-33.71,0-66.42-6.6-97.2-19.62
				c-29.74-12.58-56.44-30.58-79.38-53.52c-22.94-22.94-40.94-49.64-53.52-79.38C10.6,427.88,4,395.17,4,361.46v-57.85
				c0-33.71,6.6-66.42,19.62-97.2c12.58-29.74,30.58-56.44,53.52-79.38c22.94-22.94,49.64-40.94,79.38-53.52
				c30.79-13.02,63.49-19.62,97.2-19.62H515.19 M515.19,49.88H253.73C113.6,49.88,0,163.48,0,303.61v57.85
				c0,140.13,113.6,253.73,253.73,253.73h261.47c140.13,0,253.73-113.6,253.73-253.73v-57.85
				C768.92,163.48,655.32,49.88,515.19,49.88L515.19,49.88z"/>
		</g>
	</g>
</g>
<g id="Слой_3">
	<g>
		<ellipse cx="566.96" cy="167.69" rx="27" ry="20.5"/>
		<path d="M566.96,149.19c13.79,0,25,8.3,25,18.5s-11.21,18.5-25,18.5s-25-8.3-25-18.5S553.18,149.19,566.96,149.19 M566.96,145.19
			c-16.02,0-29,10.07-29,22.5s12.98,22.5,29,22.5s29-10.07,29-22.5S582.98,145.19,566.96,145.19L566.96,145.19z"/>
	</g>
	<g>
		<ellipse cx="211.96" cy="167.69" rx="27" ry="20.5"/>
		<path d="M211.96,149.19c13.79,0,25,8.3,25,18.5s-11.21,18.5-25,18.5s-25-8.3-25-18.5S198.18,149.19,211.96,149.19 M211.96,145.19
			c-16.02,0-29,10.07-29,22.5s12.98,22.5,29,22.5s29-10.07,29-22.5S227.98,145.19,211.96,145.19L211.96,145.19z"/>
	</g>
</g>
<g id="Слой_1">
	<g>
		<path class="st1" d="M284.07,599.19c-93.25,0-169.11-75.86-169.11-169.11c0-93.25,75.86-169.11,169.11-169.11h191.78
			c93.25,0,169.11,75.86,169.11,169.11c0,93.25-75.86,169.11-169.11,169.11H284.07z"/>
		<path d="M475.85,262.97c44.64,0,86.6,17.38,118.16,48.95c31.56,31.56,48.95,73.53,48.95,118.16c0,44.64-17.38,86.6-48.95,118.16
			c-31.56,31.56-73.53,48.95-118.16,48.95H284.07c-44.64,0-86.6-17.38-118.16-48.95c-31.56-31.56-48.95-73.53-48.95-118.16
			c0-44.64,17.38-86.6,48.95-118.16c31.56-31.56,73.53-48.95,118.16-48.95H475.85 M475.85,258.97H284.07
			c-94.5,0-171.11,76.61-171.11,171.11v0c0,94.5,76.61,171.11,171.11,171.11h191.78c94.5,0,171.11-76.61,171.11-171.11v0
			C646.96,335.58,570.35,258.97,475.85,258.97L475.85,258.97z"/>
	</g>
</g>
<g id="Слой_4">
	<g>
		<circle class="st1" cx="520.96" cy="398.19" r="44"/>
		<path d="M520.96,356.19c23.16,0,42,18.84,42,42s-18.84,42-42,42s-42-18.84-42-42S497.8,356.19,520.96,356.19 M520.96,352.19
			c-25.41,0-46,20.59-46,46s20.59,46,46,46s46-20.59,46-46S546.37,352.19,520.96,352.19L520.96,352.19z"/>
	</g>
	<g>
		<circle class="st1" cx="257.96" cy="398.19" r="44"/>
		<path d="M257.96,356.19c23.16,0,42,18.84,42,42s-18.84,42-42,42s-42-18.84-42-42S234.8,356.19,257.96,356.19 M257.96,352.19
			c-25.41,0-46,20.59-46,46s20.59,46,46,46s46-20.59,46-46S283.37,352.19,257.96,352.19L257.96,352.19z"/>
	</g>
</g>
</svg>
