<?xml version="1.0" encoding="utf-8"?>
<!-- Generator: Adobe Illustrator 27.2.0, SVG Export Plug-In . SVG Version: 6.00 Build 0)  -->
<svg version="1.1" xmlns="http://www.w3.org/2000/svg" xmlns:xlink="http://www.w3.org/1999/xlink" x="0px" y="0px"
	 viewBox="0 0 1698.78 1080.19" style="enable-background:new 0 0 1698.78 1080.19;" xml:space="preserve">
<style type="text/css">
	.st0{fill:#1FC0FF;}
	.st1{fill:none;stroke:#000000;stroke-width:10;stroke-miterlimit:10;}
	.st2{stroke:#000000;stroke-width:4;stroke-miterlimit:10;}
</style>
<g id="Слой_6">
	<g>
		<rect x="448.64" y="894.13" class="st0" width="85.94" height="170.43"/>
		<path d="M532.58,896.13v166.43h-81.94V896.13H532.58 M536.58,892.13h-89.94v174.43h89.94V892.13L536.58,892.13z"/>
	</g>
	<line class="st1" x1="147.97" y1="352.52" x2="3.52" y2="495.61"/>
	<g>
		<rect x="403.67" y="907.76" class="st0" width="85.94" height="170.43"/>
		<path d="M487.61,909.76v166.43h-81.94V909.76H487.61 M491.61,905.76h-89.94v174.43h89.94V905.76L491.61,905.76z"/>
	</g>
	<g>
		<rect x="1189.98" y="894.13" class="st0" width="85.94" height="170.43"/>
		<path d="M1273.92,896.13v166.43h-81.94V896.13H1273.92 M1277.92,892.13h-89.94v174.43h89.94V892.13L1277.92,892.13z"/>
	</g>
	<g>
		<rect x="1145.01" y="907.76" class="st0" width="85.94" height="170.43"/>
		<path d="M1228.95,909.76v166.43h-81.94V909.76H1228.95 M1232.95,905.76h-89.94v174.43h89.94V905.76L1232.95,905.76z"/>
	</g>
</g>
<g id="Слой_5">
	<path class="st2" d="M790.06,154.88l95.39-43.61l0.41-0.54L836.8,11.6c-5.15-10.4-20.6-8.14-22.56,3.3l-23.78,139.44"/>
	<path class="st2" d="M1463.56,96.82l95.69,42.95l0.52-0.54l-21.82-122.87c-2.95-16.6-25.41-19.73-32.78-4.57l-41.09,84.48"/>
	<g>
		<path class="st0" d="M336.32,929.75c-69.01,0-133.88-26.87-182.68-75.67c-48.79-48.8-75.67-113.67-75.67-182.68V457.51
			c0-69.01,26.87-133.88,75.67-182.68c48.8-48.79,113.67-75.67,182.68-75.67h1041.01c69.01,0,133.88,26.87,182.68,75.67
			c48.79,48.8,75.67,113.67,75.67,182.68V671.4c0,69.01-26.87,133.88-75.67,182.68c-48.8,48.79-113.67,75.67-182.68,75.67H336.32z"
			/>
		<path d="M1377.34,201.17c34.61,0,68.18,6.78,99.78,20.14c30.53,12.91,57.94,31.39,81.48,54.94s42.03,50.96,54.94,81.48
			c13.37,31.6,20.14,65.17,20.14,99.78V671.4c0,34.61-6.78,68.18-20.14,99.78c-12.91,30.53-31.4,57.94-54.94,81.48
			c-23.54,23.54-50.96,42.03-81.48,54.94c-31.6,13.37-65.17,20.14-99.78,20.14H336.32c-34.61,0-68.18-6.78-99.78-20.14
			c-30.53-12.91-57.94-31.4-81.48-54.94c-23.54-23.54-42.03-50.96-54.94-81.48c-13.37-31.6-20.14-65.17-20.14-99.78V457.51
			c0-34.61,6.78-68.18,20.14-99.78c12.91-30.53,31.4-57.94,54.94-81.48s50.96-42.03,81.48-54.94c31.6-13.37,65.17-20.14,99.78-20.14
			H1377.34 M1377.34,197.17H336.32c-143.79,0-260.35,116.56-260.35,260.35V671.4c0,143.79,116.56,260.35,260.35,260.35h1041.01
			c143.79,0,260.35-116.56,260.35-260.35V457.51C1637.68,313.73,1521.12,197.17,1377.34,197.17L1377.34,197.17z"/>
	</g>
</g>
<g id="Слой_2">
	<g>
		<path class="st0" d="M904.67,836.15c-67.24,0-130.45-26.18-178-73.73s-73.73-110.76-73.73-178V321.51
			c0-67.24,26.18-130.45,73.73-178c47.55-47.54,110.76-73.73,178-73.73h540.39c67.24,0,130.45,26.18,178,73.73
			c47.54,47.55,73.73,110.76,73.73,178v262.92c0,67.24-26.18,130.45-73.73,178s-110.76,73.73-178,73.73H904.67z"/>
		<g>
			<path d="M1445.06,71.78c33.71,0,66.42,6.6,97.2,19.62c29.74,12.58,56.44,30.58,79.38,53.52c22.94,22.94,40.94,49.64,53.52,79.38
				c13.02,30.79,19.62,63.49,19.62,97.2v262.92c0,33.71-6.6,66.42-19.62,97.2c-12.58,29.74-30.58,56.44-53.52,79.38
				c-22.94,22.94-49.64,40.94-79.38,53.52c-30.79,13.02-63.49,19.62-97.2,19.62H904.67c-33.71,0-66.42-6.6-97.2-19.62
				c-29.74-12.58-56.44-30.58-79.38-53.52s-40.94-49.64-53.52-79.38c-13.02-30.79-19.62-63.49-19.62-97.2V321.51
				c0-33.71,6.6-66.42,19.62-97.2c12.58-29.74,30.58-56.44,53.52-79.38s49.64-40.94,79.38-53.52c30.79-13.02,63.49-19.62,97.2-19.62
				H1445.06 M1445.06,67.78H904.67c-140.13,0-253.73,113.6-253.73,253.73v262.92c0,140.13,113.6,253.73,253.73,253.73h540.39
				c140.13,0,253.73-113.6,253.73-253.73V321.51C1698.78,181.38,1585.19,67.78,1445.06,67.78L1445.06,67.78z"/>
		</g>
	</g>
</g>
<g id="Слой_3">
	<g>
		<path d="M1423.73,256.45c-20.69,0-37.52-12.86-37.52-28.66s16.83-28.66,37.52-28.66s37.52,12.86,37.52,28.66
			S1444.42,256.45,1423.73,256.45z"/>
		<path d="M1423.73,201.13c19.59,0,35.52,11.96,35.52,26.66s-15.93,26.66-35.52,26.66s-35.52-11.96-35.52-26.66
			S1404.15,201.13,1423.73,201.13 M1423.73,197.13c-21.83,0-39.52,13.73-39.52,30.66s17.69,30.66,39.52,30.66
			c21.83,0,39.52-13.73,39.52-30.66S1445.56,197.13,1423.73,197.13L1423.73,197.13z"/>
	</g>
	<g>
		<path d="M939.96,256.45c-20.69,0-37.52-12.86-37.52-28.66s16.83-28.66,37.52-28.66s37.52,12.86,37.52,28.66
			S960.65,256.45,939.96,256.45z"/>
		<path d="M939.96,201.13c19.59,0,35.52,11.96,35.52,26.66s-15.93,26.66-35.52,26.66s-35.52-11.96-35.52-26.66
			S920.37,201.13,939.96,201.13 M939.96,197.13c-21.83,0-39.52,13.73-39.52,30.66s17.69,30.66,39.52,30.66
			c21.83,0,39.52-13.73,39.52-30.66S961.78,197.13,939.96,197.13L939.96,197.13z"/>
	</g>
</g>
<g id="Слой_1">
	<g>
		<path class="st0" d="M976.16,816.54c-93.25,0-169.11-75.86-169.11-169.11V523.29c0-93.25,75.86-169.11,169.11-169.11h385.49
			c93.25,0,169.11,75.86,169.11,169.11v124.14c0,93.25-75.86,169.11-169.11,169.11H976.16z"/>
		<path d="M1361.64,356.18c44.64,0,86.6,17.38,118.16,48.95c31.56,31.56,48.95,73.53,48.95,118.16v124.14
			c0,44.64-17.38,86.6-48.95,118.16c-31.56,31.56-73.53,48.95-118.16,48.95H976.16c-44.64,0-86.6-17.38-118.16-48.95
			c-31.56-31.56-48.95-73.53-48.95-118.16V523.29c0-44.64,17.38-86.6,48.95-118.16c31.56-31.56,73.53-48.95,118.16-48.95H1361.64
			 M1361.64,352.18H976.16c-94.5,0-171.11,76.61-171.11,171.11v124.14c0,94.5,76.61,171.11,171.11,171.11h385.49
			c94.5,0,171.11-76.61,171.11-171.11V523.29C1532.75,428.79,1456.14,352.18,1361.64,352.18L1361.64,352.18z"/>
	</g>
</g>
<g id="Слой_4">
	<g>
		<circle class="st0" cx="1361.05" cy="541.9" r="60.69"/>
		<path d="M1361.05,483.22c32.36,0,58.69,26.33,58.69,58.69c0,32.36-26.33,58.69-58.69,58.69s-58.69-26.33-58.69-58.69
			C1302.36,509.54,1328.69,483.22,1361.05,483.22 M1361.05,479.22c-34.62,0-62.69,28.07-62.69,62.69s28.07,62.69,62.69,62.69
			c34.62,0,62.69-28.07,62.69-62.69S1395.67,479.22,1361.05,479.22L1361.05,479.22z"/>
	</g>
	<g>
		<circle class="st0" cx="1002.64" cy="541.9" r="60.69"/>
		<path d="M1002.64,483.22c32.36,0,58.69,26.33,58.69,58.69c0,32.36-26.33,58.69-58.69,58.69c-32.36,0-58.69-26.33-58.69-58.69
			C943.96,509.54,970.28,483.22,1002.64,483.22 M1002.64,479.22c-34.62,0-62.69,28.07-62.69,62.69s28.07,62.69,62.69,62.69
			c34.62,0,62.69-28.07,62.69-62.69S1037.26,479.22,1002.64,479.22L1002.64,479.22z"/>
	</g>
</g>
</svg>
